<!-- icon666.com - MILLIONS vector ICONS FREE --><svg xmlns="http://www.w3.org/2000/svg" id="Line_Expand" data-name="Line Expand" viewBox="0 0 64 64"><path d="M19,24A13.001,13.001,0,0,0,39.8008,34.4a1,1,0,0,0-1.2012-1.6A11,11,0,1,1,43,24v3a2,2,0,0,1-4,0V24a7.02,7.02,0,1,0-1.6881,4.5463A3.9994,3.9994,0,0,0,45,27V24a13,13,0,0,0-26,0Zm13,5a5,5,0,1,1,5-5A5.0059,5.0059,0,0,1,32,29Z"></path><path d="M60.5811,23.1865,53,17.7719V4a1,1,0,0,0-1-1H20a1,1,0,0,0-.707.293l-8,8A.9993.9993,0,0,0,11,12v5.7719L3.4189,23.1865A.9983.9983,0,0,0,3,24V60a1,1,0,0,0,1,1H60a1,1,0,0,0,1-1V24A.9983.9983,0,0,0,60.5811,23.1865ZM27.2884,42,5,58.0477V25.9523Zm2.0344,1h5.3544L56.9,59H7.1005Zm7.3888-1L59,25.9523V58.0477ZM58.2839,24.0032,53,27.8076V20.2289ZM51,29.2476,34.6773,41H29.3227L13,29.2477V13h7a1,1,0,0,0,1-1V5H51ZM14.4141,11,19,6.4141V11ZM11,27.8077,5.716,24.0032,11,20.2289Z"></path></svg>