<svg id="Icons" viewBox="0 0 74 74" xmlns="http://www.w3.org/2000/svg"><path d="m69.373 72h-64.746a1 1 0 0 1 -1-1v-13.559a15.4 15.4 0 0 1 15.378-15.377h35.99a15.4 15.4 0 0 1 15.378 15.377v13.559a1 1 0 0 1 -1 1zm-63.746-2h62.746v-12.559a13.393 13.393 0 0 0 -13.378-13.377h-35.99a13.393 13.393 0 0 0 -13.378 13.377z"></path><path d="m36.638 35.83a16.915 16.915 0 1 1 16.915-16.915 16.934 16.934 0 0 1 -16.915 16.915zm0-31.83a14.915 14.915 0 1 0 14.915 14.915 14.932 14.932 0 0 0 -14.915-14.915z"></path><path d="m55.809 72h-37.618a1 1 0 0 1 -1-1v-9.127a1 1 0 0 1 2 0v8.127h35.618v-8.127a1 1 0 0 1 2 0v9.127a1 1 0 0 1 -1 1z"></path></svg>