<svg id="Layer_1" enable-background="new 0 0 512 512" viewBox="0 0 512 512" xmlns="http://www.w3.org/2000/svg"><path d="m345.276 0h-33.276-112-33.276c-30.175 0-54.724 24.549-54.724 54.724v402.553c0 30.174 24.549 54.723 54.724 54.723h178.553c30.174 0 54.723-24.549 54.723-54.724v-402.552c0-30.175-24.549-54.724-54.724-54.724zm-41.276 16v1.021c0 17.083-13.896 30.979-30.979 30.979h-34.043c-17.082 0-30.978-13.896-30.978-30.979v-1.021zm80 441.276c0 21.353-17.371 38.724-38.724 38.724h-178.552c-21.353 0-38.724-17.371-38.724-38.724v-402.552c0-21.353 17.371-38.724 38.724-38.724h25.276v1.021c0 25.905 21.074 46.979 46.979 46.979h34.043c25.904 0 46.978-21.074 46.978-46.979v-1.021h25.276c21.353 0 38.724 17.371 38.724 38.724z"></path><path d="m256 416c-17.645 0-32 14.355-32 32s14.355 32 32 32 32-14.355 32-32-14.355-32-32-32zm0 48c-8.822 0-16-7.178-16-16s7.178-16 16-16 16 7.178 16 16-7.178 16-16 16z"></path><path d="m327.99 260.429c-4.948-4.947-11.45-7.779-18.309-7.975-7.02-.212-13.589 2.374-18.463 7.249l-9.661 9.66c-.001 0-.001.001-.001.001-2.012 2.012-3.234 1.866-4.514 1.493-1.708-.5-4.718-2.067-9.352-6.702l-15.833-15.833c-9.538-9.537-6.828-12.248-5.21-13.866l9.662-9.661c9.937-9.938 9.61-26.434-.727-36.771l-20.037-20.039c-4.948-4.947-11.45-7.779-18.309-7.975-7.02-.212-13.589 2.374-18.463 7.249l-23.954 23.952c-4.44 4.279-6.735 10.101-6.819 17.307-.348 29.843 38.793 78.491 49.898 89.596 14.643 14.642 61.128 49.644 89.536 49.644.063 0 .129 0 .192-.001 7.173-.04 12.951-2.25 17.112-6.506l24.013-24.013c9.937-9.938 9.61-26.434-.727-36.771zm9.45 45.496-24.076 24.076c-1.125 1.15-3.085 1.741-5.825 1.757-.039 0-.077 0-.116 0-20.306 0-62.738-29.487-78.209-44.958-13.231-13.231-45.459-56.981-45.213-78.095.049-4.183 1.474-5.542 1.941-5.989.045-.043.089-.086.133-.13l24.014-24.013c1.666-1.666 3.931-2.573 6.403-2.573.097 0 .193.001.29.004 2.758.078 5.404 1.249 7.45 3.295l20.037 20.039c4.1 4.1 4.426 10.444.728 14.144l-9.662 9.661c-5.842 5.842-12.933 18.352 5.209 36.494l15.833 15.833c5.721 5.721 11.013 9.235 16.177 10.745 7.378 2.154 14.591.189 20.316-5.537l9.662-9.661c1.731-1.731 4.118-2.638 6.693-2.569 2.758.078 5.404 1.249 7.45 3.295l20.037 20.039c4.101 4.099 4.427 10.444.728 14.143z"></path></svg>